<svg xmlns="http://www.w3.org/2000/svg" viewBox="0 0 400 400" role="img" aria-label="R.F.C. Lissewege wapenschild">
  <defs>
    <clipPath id="innerField">
      <circle cx="200" cy="200" r="152"/>
    </clipPath>
    <path id="topTextArc" d="M 72 215 A 128 128 0 0 1 328 215" fill="none"/>
    <path id="bottomTextArc" d="M 328 225 A 128 128 0 0 1 72 225" fill="none"/>
  </defs>

  <!-- Outer red ring -->
  <circle cx="200" cy="200" r="196" fill="#c41e3a" stroke="#8f1529" stroke-width="2"/>
  <circle cx="200" cy="200" r="168" fill="#f7f7f2"/>

  <!-- Curved club name -->
  <text fill="#111" font-family="Arial Black, Arial, sans-serif" font-size="15" font-weight="900" letter-spacing="2.5">
    <textPath href="#topTextArc" startOffset="50%" text-anchor="middle">FOOTBALLCLUB</textPath>
  </text>
  <text fill="#111" font-family="Arial Black, Arial, sans-serif" font-size="15" font-weight="900" letter-spacing="2.5">
    <textPath href="#bottomTextArc" startOffset="50%" text-anchor="middle">LISSEWEGE</textPath>
  </text>

  <!-- Stars -->
  <g fill="#111">
    <polygon points="118,318 121,326 130,326 123,331 126,340 118,334 110,340 113,331 106,326 115,326"/>
    <polygon points="200,332 203,340 212,340 205,345 208,354 200,348 192,354 195,345 188,340 197,340"/>
    <polygon points="282,318 285,326 294,326 287,331 290,340 282,334 274,340 277,331 270,326 279,326"/>
  </g>

  <!-- Green / yellow vertical stripes -->
  <g clip-path="url(#innerField)">
    <rect x="48" y="48" width="14.5" height="304" fill="#1a7a4a"/>
    <rect x="62.5" y="48" width="14.5" height="304" fill="#f4c430"/>
    <rect x="77" y="48" width="14.5" height="304" fill="#1a7a4a"/>
    <rect x="91.5" y="48" width="14.5" height="304" fill="#f4c430"/>
    <rect x="106" y="48" width="14.5" height="304" fill="#1a7a4a"/>
    <rect x="120.5" y="48" width="14.5" height="304" fill="#f4c430"/>
    <rect x="135" y="48" width="14.5" height="304" fill="#1a7a4a"/>
    <rect x="149.5" y="48" width="14.5" height="304" fill="#f4c430"/>
    <rect x="164" y="48" width="14.5" height="304" fill="#1a7a4a"/>
    <rect x="178.5" y="48" width="14.5" height="304" fill="#f4c430"/>
    <rect x="193" y="48" width="14.5" height="304" fill="#1a7a4a"/>
    <rect x="207.5" y="48" width="14.5" height="304" fill="#f4c430"/>
    <rect x="222" y="48" width="14.5" height="304" fill="#1a7a4a"/>
    <rect x="236.5" y="48" width="14.5" height="304" fill="#f4c430"/>
    <rect x="251" y="48" width="14.5" height="304" fill="#1a7a4a"/>
    <rect x="265.5" y="48" width="14.5" height="304" fill="#f4c430"/>
    <rect x="280" y="48" width="14.5" height="304" fill="#1a7a4a"/>
    <rect x="294.5" y="48" width="14.5" height="304" fill="#f4c430"/>
    <rect x="309" y="48" width="14.5" height="304" fill="#1a7a4a"/>
    <rect x="323.5" y="48" width="14.5" height="304" fill="#f4c430"/>
    <rect x="338" y="48" width="14" height="304" fill="#1a7a4a"/>
  </g>

  <!-- Crown -->
  <g fill="none" stroke="#111" stroke-width="3" stroke-linecap="round" stroke-linejoin="round">
    <path d="M162 158 L172 132 L188 148 L200 118 L212 148 L228 132 L238 158 Z"/>
    <path d="M162 158 H238"/>
  </g>

  <!-- Shield -->
  <path d="M200 168 C176 168 158 178 158 198 V228 C158 252 178 272 200 286 C222 272 242 252 242 228 V198 C242 178 224 168 200 168 Z"
        fill="#f4c430" stroke="#111" stroke-width="3"/>

  <!-- Scallop shells -->
  <g fill="none" stroke="#111" stroke-width="2.5">
    <path d="M176 206 C176 196 186 190 200 190 C214 190 224 196 224 206 C224 216 214 224 200 224 C186 224 176 216 176 206 Z"/>
    <path d="M168 222 C168 214 182 208 200 208 C218 208 232 214 232 222"/>
    <path d="M184 234 C184 228 191 224 200 224 C209 224 216 228 216 234"/>
  </g>

  <!-- Plant symbol -->
  <g fill="#1a7a4a" stroke="#111" stroke-width="1.5">
    <path d="M200 248 C194 242 194 232 200 226 C206 232 206 242 200 248 Z"/>
    <path d="M200 226 V262" stroke="#111" stroke-width="2" fill="none"/>
    <path d="M200 238 C192 236 188 230 190 224" fill="none" stroke="#111" stroke-width="2"/>
    <path d="M200 238 C208 236 212 230 210 224" fill="none" stroke="#111" stroke-width="2"/>
  </g>
</svg>
